<mxfile host="65bd71144e">
    <diagram id="AyAenQ3ENkr3PZhJG4Eq" name="Page-1">
        <mxGraphModel dx="904" dy="451" grid="1" gridSize="10" guides="1" tooltips="1" connect="1" arrows="1" fold="1" page="1" pageScale="1" pageWidth="850" pageHeight="1100" math="0" shadow="0">
            <root>
                <mxCell id="0"/>
                <mxCell id="1" parent="0"/>
                <mxCell id="16" value="サーバー" style="rounded=1;whiteSpace=wrap;html=1;" parent="1" vertex="1">
                    <mxGeometry x="254" y="570" width="120" height="60" as="geometry"/>
                </mxCell>
                <mxCell id="17" value="レプリカ&lt;br&gt;DB" style="shape=cylinder3;whiteSpace=wrap;html=1;boundedLbl=1;backgroundOutline=1;size=15;" parent="1" vertex="1">
                    <mxGeometry x="474" y="620" width="90" height="70" as="geometry"/>
                </mxCell>
                <mxCell id="18" value="" style="endArrow=none;html=1;entryX=1;entryY=0.5;entryDx=0;entryDy=0;exitX=-0.033;exitY=0.588;exitDx=0;exitDy=0;exitPerimeter=0;" parent="1" source="17" target="16" edge="1">
                    <mxGeometry width="50" height="50" relative="1" as="geometry">
                        <mxPoint x="264" y="560" as="sourcePoint"/>
                        <mxPoint x="214" y="560" as="targetPoint"/>
                    </mxGeometry>
                </mxCell>
                <mxCell id="19" value="ソース&lt;br&gt;DB" style="shape=cylinder3;whiteSpace=wrap;html=1;boundedLbl=1;backgroundOutline=1;size=15;" parent="1" vertex="1">
                    <mxGeometry x="474" y="480" width="90" height="70" as="geometry"/>
                </mxCell>
                <mxCell id="20" value="" style="endArrow=none;html=1;exitX=0;exitY=0;exitDx=0;exitDy=45;exitPerimeter=0;" parent="1" source="19" edge="1">
                    <mxGeometry width="50" height="50" relative="1" as="geometry">
                        <mxPoint x="471.03" y="681.1600000000001" as="sourcePoint"/>
                        <mxPoint x="374" y="600" as="targetPoint"/>
                    </mxGeometry>
                </mxCell>
                <mxCell id="21" value="書き込み" style="text;html=1;strokeColor=none;fillColor=none;align=center;verticalAlign=middle;whiteSpace=wrap;rounded=0;" parent="1" vertex="1">
                    <mxGeometry x="384" y="520" width="60" height="30" as="geometry"/>
                </mxCell>
                <mxCell id="22" value="読み込み" style="text;html=1;strokeColor=none;fillColor=none;align=center;verticalAlign=middle;whiteSpace=wrap;rounded=0;" parent="1" vertex="1">
                    <mxGeometry x="388" y="640" width="60" height="30" as="geometry"/>
                </mxCell>
                <mxCell id="23" value="" style="endArrow=none;dashed=1;html=1;dashPattern=1 3;strokeWidth=2;entryX=0.5;entryY=0;entryDx=0;entryDy=0;entryPerimeter=0;exitX=0.5;exitY=1;exitDx=0;exitDy=0;exitPerimeter=0;" parent="1" source="19" target="17" edge="1">
                    <mxGeometry width="50" height="50" relative="1" as="geometry">
                        <mxPoint x="334" y="500" as="sourcePoint"/>
                        <mxPoint x="384" y="450" as="targetPoint"/>
                    </mxGeometry>
                </mxCell>
                <mxCell id="24" value="同期" style="text;html=1;strokeColor=none;fillColor=none;align=center;verticalAlign=middle;whiteSpace=wrap;rounded=0;" parent="1" vertex="1">
                    <mxGeometry x="534" y="580" width="60" height="30" as="geometry"/>
                </mxCell>
                <mxCell id="44" value="レプリカ&lt;br&gt;DB" style="shape=cylinder3;whiteSpace=wrap;html=1;boundedLbl=1;backgroundOutline=1;size=15;" parent="1" vertex="1">
                    <mxGeometry x="594" y="620" width="90" height="70" as="geometry"/>
                </mxCell>
                <mxCell id="45" value="" style="endArrow=none;dashed=1;html=1;dashPattern=1 3;strokeWidth=2;entryX=0.5;entryY=0;entryDx=0;entryDy=0;entryPerimeter=0;" parent="1" target="44" edge="1">
                    <mxGeometry width="50" height="50" relative="1" as="geometry">
                        <mxPoint x="520" y="550" as="sourcePoint"/>
                        <mxPoint x="529" y="630" as="targetPoint"/>
                    </mxGeometry>
                </mxCell>
            </root>
        </mxGraphModel>
    </diagram>
</mxfile>
